<svg id="svg" version="1.1" xmlns="http://www.w3.org/2000/svg" xmlns:xlink="http://www.w3.org/1999/xlink" width="400" height="400" viewBox="0, 0, 400,400"><g id="svgg"><path id="path0" d="M233.594 0.540 C 199.672 4.130,172.673 25.751,162.561 57.422 C 158.094 71.412,157.627 76.258,157.231 112.695 L 156.868 146.094 126.481 146.094 L 96.094 146.094 96.094 182.031 L 96.094 217.969 126.563 217.969 L 157.031 217.969 157.031 308.984 L 157.031 400.000 194.141 400.000 L 231.250 400.000 231.250 308.984 L 231.250 217.969 261.914 217.968 L 292.578 217.967 297.097 182.616 C 299.582 163.173,301.604 147.002,301.589 146.680 C 301.574 146.357,285.715 146.094,266.346 146.094 L 231.129 146.094 231.428 118.164 C 231.952 69.115,234.801 66.458,286.914 66.419 L 303.906 66.406 303.906 34.452 L 303.906 2.497 299.414 2.010 C 283.558 0.291,244.243 -0.588,233.594 0.540 " stroke="none" fill="#000000" fill-rule="evenodd"></path></g></svg>