<svg id="svg" version="1.1" xmlns="http://www.w3.org/2000/svg" xmlns:xlink="http://www.w3.org/1999/xlink" width="400" height="400" viewBox="0, 0, 400,400"><g id="svgg"><path id="path0" d="M40.012 1.577 C 21.531 6.419,6.284 21.773,1.541 40.320 C -0.579 48.608,-0.886 349.643,1.216 358.594 C 5.742 377.862,22.138 394.258,41.406 398.784 C 49.102 400.592,350.898 400.592,358.594 398.784 C 377.614 394.317,393.615 378.621,398.459 359.680 C 400.875 350.236,400.875 49.764,398.459 40.320 C 393.676 21.615,378.385 6.324,359.680 1.541 C 350.407 -0.831,49.072 -0.797,40.012 1.577 M119.922 77.128 C 143.951 84.573,151.337 114.846,133.482 132.701 C 117.081 149.102,90.241 144.545,79.890 123.601 C 67.049 97.619,92.119 68.514,119.922 77.128 M275.000 156.282 C 300.852 160.359,315.453 176.271,321.572 207.031 C 322.712 212.765,322.937 220.936,323.214 266.837 L 323.534 320.003 321.426 322.111 L 319.318 324.219 297.203 324.219 L 275.087 324.219 272.895 322.334 L 270.703 320.449 270.287 272.529 C 269.880 225.621,269.834 224.500,268.131 219.413 C 258.754 191.408,224.849 193.355,214.964 222.466 L 212.910 228.516 212.510 274.295 C 212.070 324.562,212.361 321.813,207.252 323.949 C 204.157 325.243,170.735 325.434,166.234 324.184 C 160.548 322.605,160.937 328.709,160.937 241.276 L 160.938 162.587 162.822 160.395 L 164.706 158.203 185.225 157.970 C 212.762 157.657,212.483 157.524,212.526 171.072 L 212.552 179.297 215.014 176.172 C 228.099 159.562,249.922 152.326,275.000 156.282 M133.382 160.369 L 135.547 162.535 135.746 240.447 C 135.940 316.625,135.910 318.415,134.414 320.859 C 132.076 324.677,129.058 325.139,108.283 324.856 C 88.049 324.581,86.868 324.293,84.700 319.105 C 83.295 315.742,83.037 168.833,84.427 163.827 C 86.040 158.019,87.268 157.747,110.726 157.990 L 131.217 158.203 133.382 160.369 " stroke="none" fill="#000000" fill-rule="evenodd"></path></g></svg>