<svg id="svg" version="1.1" xmlns="http://www.w3.org/2000/svg" xmlns:xlink="http://www.w3.org/1999/xlink" width="400" height="400" viewBox="0, 0, 400,400"><g id="svgg"><path id="path0" d="M260.547 38.748 C 216.131 48.632,188.172 90.008,195.797 134.570 L 196.298 137.500 193.243 137.500 C 140.914 137.500,70.154 102.238,33.017 57.655 C 27.724 51.301,27.884 51.330,25.367 56.297 C 7.187 92.173,17.222 135.257,49.519 159.992 L 51.772 161.718 47.956 161.277 C 38.075 160.137,27.100 156.986,19.494 153.106 C 15.254 150.943,15.338 150.819,15.881 158.471 C 18.283 192.312,40.552 220.906,72.594 231.295 L 79.172 233.428 74.628 234.371 C 69.261 235.485,53.525 235.806,48.242 234.909 C 43.757 234.148,43.752 234.174,46.977 241.921 C 58.073 268.575,85.211 288.698,114.252 291.805 L 119.519 292.368 115.992 295.062 C 87.952 316.472,42.277 329.412,6.836 325.987 C -1.864 325.146,-1.782 325.378,8.789 331.481 C 92.124 379.591,199.772 371.794,272.769 312.360 C 326.025 269.000,359.316 199.025,359.367 130.343 L 359.375 118.888 366.313 113.356 C 378.134 103.929,401.558 77.860,399.794 76.096 C 399.586 75.888,396.823 76.744,393.654 77.997 C 387.296 80.511,376.752 83.809,370.703 85.176 C 363.923 86.709,355.338 88.095,356.002 87.550 C 356.353 87.262,358.647 85.520,361.099 83.679 C 371.023 76.226,379.643 65.478,385.169 53.665 C 390.612 42.029,390.839 42.220,378.787 48.295 C 368.432 53.515,354.320 58.736,342.841 61.596 L 336.854 63.087 333.466 59.633 C 316.926 42.769,284.374 33.445,260.547 38.748 " stroke="none" fill="#000000" fill-rule="evenodd"></path></g></svg>